<svg viewBox="0 0 75 75" xmlns="http://www.w3.org/2000/svg"><g transform="translate(12.948, 0.398)"><path d="M 48.601 27.103 L 30.601 27.103 L 30.601 23.103 A 47.719 47.719 0 0 0 30.529 20.383 Q 30.383 17.837 29.939 16.223 A 7.294 7.294 0 0 0 29.451 14.903 Q 28.477 12.957 26.323 12.658 A 5.975 5.975 0 0 0 25.501 12.603 Q 21.401 12.603 20.201 17.603 A 23.55 23.55 0 0 0 19.811 20.04 Q 19.344 24.072 19.234 31.932 A 372.48 372.48 0 0 0 19.201 37.103 A 357.404 357.404 0 0 0 19.248 43.197 Q 19.419 53.166 20.201 56.603 Q 21.401 61.603 25.501 61.603 Q 29.681 61.603 30.742 54.798 A 23.874 23.874 0 0 0 30.801 54.403 A 12.585 12.585 0 0 0 30.902 53.462 Q 31.101 50.928 31.101 44.103 L 49.101 44.103 L 49.101 49.403 Q 49.101 70.627 31.816 73.688 A 36.268 36.268 0 0 1 25.501 74.203 A 41.656 41.656 0 0 1 18.216 73.614 Q 8.887 71.952 4.901 65.603 Q 0.001 57.903 0.001 37.103 Q 0.001 20.944 3.416 12.384 A 21.968 21.968 0 0 1 5.551 8.253 Q 11.101 0.003 25.501 0.003 A 34.14 34.14 0 0 1 34.501 1.085 Q 48.601 4.947 48.601 22.603 L 48.601 27.103 Z"></path></g></svg>