<svg viewBox="0 0 75 75" xmlns="http://www.w3.org/2000/svg"><g transform="translate(4.249, 0.0985)"><path fill="#a18d75" d="M 65.902 25.701 L 50.702 25.701 A 13.163 13.163 0 0 0 46.182 17.374 A 17.277 17.277 0 0 0 45.502 16.801 Q 41.002 13.201 35.102 13.201 A 20.405 20.405 0 0 0 28.606 14.183 A 16.27 16.27 0 0 0 20.102 20.801 A 24.067 24.067 0 0 0 16.767 28.409 Q 15.702 32.583 15.702 37.701 Q 15.702 47.701 20.102 54.101 A 16.647 16.647 0 0 0 32.151 61.418 A 23.045 23.045 0 0 0 35.102 61.601 A 17.678 17.678 0 0 0 40.297 60.873 A 13.969 13.969 0 0 0 46.402 57.101 Q 50.402 52.901 51.302 45.601 L 66.502 45.601 A 37.469 37.469 0 0 1 64.189 55.849 A 29.322 29.322 0 0 1 56.752 66.851 A 29.425 29.425 0 0 1 39.47 74.566 A 39.614 39.614 0 0 1 35.102 74.801 A 38.859 38.859 0 0 1 23.288 73.087 A 31.207 31.207 0 0 1 9.302 64.001 Q 0.002 53.701 0.002 37.701 A 47.275 47.275 0 0 1 1.478 25.585 A 35.175 35.175 0 0 1 9.302 10.901 A 31.604 31.604 0 0 1 30.676 0.217 A 44.31 44.31 0 0 1 35.102 0.001 Q 47.302 0.001 55.702 6.701 Q 64.502 13.701 65.902 25.701 Z"></path></g></svg>