<svg viewBox="0 0 75 75" xmlns="http://www.w3.org/2000/svg"><g transform="translate(3.399, 0.0298)"><path fill="#a18d75" d="M 68.202 27.002 L 49.602 27.002 A 13.527 13.527 0 0 0 48.513 23.1 A 10.85 10.85 0 0 0 45.052 18.852 A 14.02 14.02 0 0 0 39.762 16.481 Q 37.794 16.032 35.508 16.004 A 24.919 24.919 0 0 0 35.202 16.002 Q 26.802 16.002 22.402 22.602 Q 18.602 28.302 18.602 37.202 Q 18.602 46.102 22.402 51.802 A 14.055 14.055 0 0 0 32.553 58.224 A 19.118 19.118 0 0 0 35.202 58.402 A 19.592 19.592 0 0 0 40.766 57.677 Q 47.011 55.826 48.891 49.253 A 21.114 21.114 0 0 0 49.602 45.202 L 68.202 45.202 A 34.834 34.834 0 0 1 66.381 54.942 A 26.806 26.806 0 0 1 58.452 66.602 Q 49.402 74.402 35.602 74.402 Q 19.702 74.402 9.702 63.602 A 36.213 36.213 0 0 1 0.239 42.039 A 48.282 48.282 0 0 1 0.002 37.202 A 42.3 42.3 0 0 1 2.024 23.87 A 35.801 35.801 0 0 1 9.852 10.652 Q 19.702 0.002 35.602 0.002 A 37.157 37.157 0 0 1 50.299 2.875 A 35.619 35.619 0 0 1 57.502 7.002 A 28.38 28.38 0 0 1 64.334 14.216 A 24.63 24.63 0 0 1 68.202 27.002 Z"></path></g></svg>