<svg viewBox="0 0 75 75" xmlns="http://www.w3.org/2000/svg"><g transform="translate(5.799, 0.299)"><path d="M 62.401 23.101 L 55.601 23.101 A 23.305 23.305 0 0 0 52.861 16.076 A 20.116 20.116 0 0 0 47.751 10.401 Q 41.701 5.801 33.701 5.801 A 28.785 28.785 0 0 0 24.757 7.123 A 22.856 22.856 0 0 0 13.201 15.601 Q 6.801 24.301 6.801 37.201 A 42.982 42.982 0 0 0 7.858 46.973 A 31.297 31.297 0 0 0 13.201 58.701 A 23.155 23.155 0 0 0 30.081 68.406 A 32.548 32.548 0 0 0 33.701 68.601 Q 43.301 68.601 49.601 61.901 A 25.203 25.203 0 0 0 55.841 50.215 A 33.401 33.401 0 0 0 56.601 45.701 L 63.401 45.701 A 40.762 40.762 0 0 1 61.246 55.355 A 29.698 29.698 0 0 1 54.051 66.651 A 27.006 27.006 0 0 1 37.468 74.212 A 36.591 36.591 0 0 1 33.701 74.401 A 36.818 36.818 0 0 1 22.386 72.745 A 29.281 29.281 0 0 1 8.401 63.101 Q 0.001 52.801 0.001 37.201 A 47.713 47.713 0 0 1 1.442 25.191 A 35.984 35.984 0 0 1 8.401 11.301 A 30.026 30.026 0 0 1 30.023 0.156 A 42.635 42.635 0 0 1 33.701 0.001 A 32.688 32.688 0 0 1 44.813 1.842 A 29.505 29.505 0 0 1 52.401 5.901 A 24.808 24.808 0 0 1 60.124 15.101 A 25.518 25.518 0 0 1 62.401 23.101 Z"></path></g></svg>