<svg viewBox="0 0 75 75" xmlns="http://www.w3.org/2000/svg"><g transform="translate(5.199, 0.0985)"><path fill="#a18d75" d="M 64.502 24.401 L 52.002 24.401 A 23.295 23.295 0 0 0 49.291 17.778 Q 45.256 11.296 37.082 10.359 A 25.299 25.299 0 0 0 34.202 10.201 A 21.507 21.507 0 0 0 26.575 11.498 Q 21.197 13.521 17.602 18.701 A 27.823 27.823 0 0 0 13.426 28.485 Q 12.563 32.317 12.506 36.765 A 49.348 49.348 0 0 0 12.502 37.401 Q 12.502 47.84 16.854 54.951 A 25.326 25.326 0 0 0 17.602 56.101 Q 23.121 64.053 32.842 64.566 A 25.817 25.817 0 0 0 34.202 64.601 A 18.872 18.872 0 0 0 40.295 63.658 A 15.791 15.791 0 0 0 47.102 59.101 A 19.915 19.915 0 0 0 51.273 51.628 A 28.272 28.272 0 0 0 52.402 45.901 L 64.602 45.901 A 34.978 34.978 0 0 1 62.464 56.23 A 28.516 28.516 0 0 1 55.452 66.801 A 28.497 28.497 0 0 1 38.122 74.606 A 38.418 38.418 0 0 1 34.202 74.801 A 35.47 35.47 0 0 1 22.125 72.826 A 30.563 30.563 0 0 1 9.102 63.701 A 36.916 36.916 0 0 1 0.406 43.831 A 49.579 49.579 0 0 1 0.002 37.401 A 45.765 45.765 0 0 1 1.621 24.947 A 35.879 35.879 0 0 1 9.102 11.001 A 31.072 31.072 0 0 1 31.801 0.068 A 42.306 42.306 0 0 1 34.202 0.001 A 39.117 39.117 0 0 1 43.868 1.14 A 29.67 29.67 0 0 1 54.802 6.401 A 24.766 24.766 0 0 1 64.415 23.612 A 32.019 32.019 0 0 1 64.502 24.401 Z"></path></g></svg>