<svg viewBox="0 0 75 75" xmlns="http://www.w3.org/2000/svg"><g transform="translate(5.549, 0.098)"><path d="M 62.702 23.002 L 58.302 23.002 Q 56.902 14.202 50.052 9.002 A 25.556 25.556 0 0 0 35.142 3.822 A 31.798 31.798 0 0 0 34.002 3.802 A 30.17 30.17 0 0 0 23.488 5.564 A 26.346 26.346 0 0 0 12.202 13.702 A 33.366 33.366 0 0 0 5.019 29.746 A 45.713 45.713 0 0 0 4.402 37.402 A 43.122 43.122 0 0 0 5.739 48.404 A 32.617 32.617 0 0 0 12.202 61.102 A 26.469 26.469 0 0 0 31.499 70.915 A 35.39 35.39 0 0 0 34.002 71.002 A 23.417 23.417 0 0 0 50.963 63.854 A 31.268 31.268 0 0 0 51.702 63.102 Q 58.902 55.602 59.502 45.302 L 63.902 45.302 Q 62.702 58.102 54.252 66.452 Q 45.802 74.802 34.002 74.802 Q 18.402 74.802 9.002 63.902 A 35.775 35.775 0 0 1 0.795 46.5 A 50.002 50.002 0 0 1 0.002 37.402 A 47.666 47.666 0 0 1 1.43 25.429 A 35.108 35.108 0 0 1 9.002 10.902 A 30.844 30.844 0 0 1 31.484 0.075 A 42.566 42.566 0 0 1 34.002 0.002 A 36.116 36.116 0 0 1 43.575 1.197 A 25.102 25.102 0 0 1 57.802 11.102 Q 61.62 16.518 62.521 21.698 A 19.04 19.04 0 0 1 62.702 23.002 Z"></path></g></svg>