<svg viewBox="0 0 75 75" xmlns="http://www.w3.org/2000/svg"><g transform="translate(5.649, 0.098)"><path d="M 61.702 45.101 L 63.702 45.101 A 44.202 44.202 0 0 1 61.004 55.487 A 32.972 32.972 0 0 1 53.652 66.701 A 27.435 27.435 0 0 1 37.835 74.414 A 38.16 38.16 0 0 1 32.302 74.801 A 32.243 32.243 0 0 1 20.431 72.686 A 29.249 29.249 0 0 1 9.002 64.501 A 35.775 35.775 0 0 1 0.795 47.1 A 50.002 50.002 0 0 1 0.002 38.001 A 46.113 46.113 0 0 1 2.946 21.357 A 42.685 42.685 0 0 1 8.352 11.451 A 26.999 26.999 0 0 1 25.918 0.673 A 41.798 41.798 0 0 1 33.602 0.001 A 35.608 35.608 0 0 1 42.56 1.07 A 25.779 25.779 0 0 1 54.302 7.601 A 33.359 33.359 0 0 1 58.415 12.381 Q 60.475 15.335 61.384 18.334 A 16.354 16.354 0 0 1 62.102 23.101 L 60.102 23.101 A 20.307 20.307 0 0 0 55.339 11.72 A 28.452 28.452 0 0 0 52.102 8.401 Q 44.802 2.001 33.602 2.001 A 35.919 35.919 0 0 0 23.985 3.212 A 24.81 24.81 0 0 0 9.802 13.251 Q 2.002 24.501 2.002 38.001 A 42.173 42.173 0 0 0 3.926 50.966 A 35.99 35.99 0 0 0 10.202 62.601 A 26.409 26.409 0 0 0 29.537 72.696 A 35.654 35.654 0 0 0 32.302 72.801 A 32.655 32.655 0 0 0 41.429 71.587 A 25.075 25.075 0 0 0 52.352 65.151 A 31.863 31.863 0 0 0 60.379 51.354 A 42.58 42.58 0 0 0 61.702 45.101 Z"></path></g></svg>